<?xml version="1.0" standalone="no"?><!DOCTYPE svg PUBLIC "-//W3C//DTD SVG 1.1//EN" "http://www.w3.org/Graphics/SVG/1.1/DTD/svg11.dtd"><svg t="1586842725477" class="icon" viewBox="0 0 1024 1024" version="1.1" xmlns="http://www.w3.org/2000/svg" p-id="132991" xmlns:xlink="http://www.w3.org/1999/xlink" width="200" height="200"><defs><style type="text/css"></style></defs><path d="M32.020 512.762c0 264.676 214.562 479.238 479.238 479.238s479.238-214.562 479.238-479.238c0-264.676-214.562-479.238-479.238-479.238-264.676 0-479.238 214.562-479.238 479.238z" fill="#95B31E" p-id="132992"></path><path d="M589.602 798.155h-172.545l22.12-123.644h130.515z" fill="#D5D6DA" p-id="132993"></path><path d="M617.062 803.863h-225.254c0 0 0 0 0 0-0.341 0-0.618-0.277-0.618-0.618v-10.182c0-0.341 0.277-0.618 0.618-0.618h225.254c0.341 0 0.618 0.277 0.618 0.618v10.182c0 0.341-0.277 0.618-0.618 0.618z" fill="#F5F5F6" p-id="132994"></path><path d="M581.075 745.202h-154.544l6.010-33.639h143.787z" fill="#96969B" p-id="132995"></path><path d="M847.503 728.591h-680.972c0 0 0 0 0 0-1.756 0-3.18-1.424-3.18-3.18 0 0 0 0 0 0v-456.769c0 0 0 0 0 0 0-1.757 1.424-3.181 3.18-3.181h680.973c0 0 0 0 0 0 1.757 0 3.181 1.424 3.181 3.181 0 0 0 0 0 0v456.768c-0.001 1.757-1.425 3.181-3.182 3.181 0 0 0 0 0 0z" fill="" p-id="132996"></path><path d="M204.825 308.398v361.773l604.384-361.773z" fill="#FFFFFF" p-id="132997"></path><path d="M809.208 308.398l-604.384 361.773h48.967l555.417-332.462zM809.208 363.488l-512.348 306.682h512.348z" fill="#EBEBED" p-id="132998"></path><path d="M809.208 337.708l-555.417 332.462h43.069l512.348-306.682z" fill="#FFFFFF" p-id="132999"></path><path d="M493.006 699.716c0 6.312 5.117 11.43 11.43 11.43s11.43-5.117 11.43-11.43c0 0 0 0 0 0 0-6.312-5.117-11.43-11.43-11.43-6.312 0-11.43 5.117-11.43 11.43 0 0 0 0 0 0z" fill="#FFFFFF" p-id="133000"></path></svg>