<?xml version="1.0" standalone="no"?><!DOCTYPE svg PUBLIC "-//W3C//DTD SVG 1.1//EN" "http://www.w3.org/Graphics/SVG/1.1/DTD/svg11.dtd"><svg t="1586837013899" class="icon" viewBox="0 0 1024 1024" version="1.1" xmlns="http://www.w3.org/2000/svg" p-id="56566" xmlns:xlink="http://www.w3.org/1999/xlink" width="200" height="200"><defs><style type="text/css"></style></defs><path d="M512 1024C230.4 1024 0 793.6 0 512S230.4 0 512 0s512 230.4 512 512-230.4 512-512 512z" fill="#EC6646" p-id="56567"></path><path d="M1019.648 577.408c-80.272-33.4-444.44-183.992-498.304-189.416-60.592-6.104-51.352 55.944-51.352 55.944s-175.616 34.584-198.216 213.608c-35.944 10.168-71.888 17.296-71.888 36.616 0 16.8 228.464 264.632 288.272 329.224 7.912 0.376 15.848 0.616 23.84 0.616 259.44 0 475.256-195.608 507.648-446.592z" fill="#BF4231" p-id="56568"></path><path d="M810.248 687.376c0 26.72-136.264 48.384-304.36 48.384s-304.36-21.664-304.36-48.384 136.264-48.384 304.36-48.384 304.36 21.664 304.36 48.384" fill="#DFDEDE" p-id="56569"></path><path d="M557.512 438.632c0.016-0.584 0.088-1.152 0.088-1.736 0-26.328-21.904-47.672-48.936-47.672a49.8 49.8 0 0 0-20.64 4.432c-16.712 7.584-28.288 24.096-28.288 43.24 0 0.584 0.064 1.16 0.088 1.736h16.056c-0.032-0.584-0.184-1.144-0.184-1.736 0-17.736 14.76-32.12 32.968-32.12 18.208 0 32.968 14.384 32.968 32.12 0 0.592-0.144 1.152-0.176 1.736h16.056zM361.248 736.744c0.288 12.448 9.192 22.544 20.104 22.544 0 0 35.136 8.312 127.12 8.312 80.616 0 122.992-8.312 122.992-8.312 10.904 0 19.816-10.096 20.104-22.544" fill="#AEABAA" p-id="56570"></path><path d="M508.472 771.72c-86.904 0-123.016-7.304-127.608-8.312-12.816-0.296-23.416-12.096-23.744-26.568a4.146 4.146 0 0 1 4.032-4.232c2.272 0.04 4.184 1.76 4.224 4.032 0.24 10.208 7.4 18.512 15.976 18.512 0.32 0 0.632 0.04 0.944 0.12 0.352 0.08 35.976 8.192 126.184 8.192 79.184 0 121.784-8.144 122.2-8.232 9.376-0.08 16.528-8.376 16.76-18.576 0.056-2.288 2.072-3.912 4.216-4.04a4.128 4.128 0 0 1 4.04 4.216c-0.328 14.656-11.192 26.584-24.224 26.584 0.36 0.008-42.912 8.304-123 8.304" fill="#474341" p-id="56571"></path><path d="M282.368 686.2c16.384 12.512 395.384 14 449.096-3.488 1.208-0.392 2.504-0.488 3.744-0.728 4.36-14.992 6.72-30.64 6.72-46.76 0-108.576-104.8-196.6-234.08-196.6s-234.08 88.024-234.08 196.6c0 17.512 2.76 34.464 7.872 50.624 0.248 0.128 0.48 0.168 0.728 0.352" fill="#DFDEDE" p-id="56572"></path><path d="M505.352 440.872c-47.928 0-92.464 12.12-129.576 32.88a277.35 277.35 0 0 1 51.936-4.92c129.28 0 234.08 88.024 234.08 196.6 0 9.536-0.92 18.88-2.496 28.048 33.176-2.064 58.488-4.88 69.672-8.52 1.2-0.392 2.496-0.48 3.744-0.728 4.352-14.992 6.72-30.64 6.72-46.76 0-108.576-104.8-196.6-234.08-196.6" fill="#FDFBF8" p-id="56573"></path><path d="M637.088 632.424c-1.56 0-3.048-0.888-3.744-2.4a4.124 4.124 0 0 1 2.016-5.48l65.44-30.232a4.13 4.13 0 0 1 3.464 7.496l-65.44 30.232a4.08 4.08 0 0 1-1.736 0.384M586.168 655.936c-1.56 0-3.048-0.888-3.744-2.4a4.124 4.124 0 0 1 2.016-5.48l27.752-12.816a4.126 4.126 0 0 1 5.48 2.016 4.124 4.124 0 0 1-2.016 5.48l-27.744 12.816a4.09 4.09 0 0 1-1.744 0.384M623.736 660.656a4.15 4.15 0 0 1-3.768-2.424 4.146 4.146 0 0 1 2.056-5.472l76.952-34.888c2.088-0.912 4.528-0.008 5.472 2.056a4.146 4.146 0 0 1-2.056 5.472l-76.952 34.888a4.14 4.14 0 0 1-1.704 0.368" fill="#474341" p-id="56574"></path><path d="M505.888 742.648c-125.76 0-312.856-14.744-312.856-55.368 0-14.136 19.888-25.16 62.568-34.68 3.12-0.696 6.328 1.28 7.04 4.464a5.896 5.896 0 0 1-4.472 7.04c-52.736 11.776-53.336 22.712-53.336 23.176 0 15.632 100.6 43.568 301.056 43.568s301.056-27.928 301.056-43.568c0-0.456-0.6-11.4-53.312-23.176a5.896 5.896 0 0 1-4.472-7.04c0.712-3.184 3.912-5.16 7.04-4.464 42.672 9.52 62.544 20.544 62.544 34.68 0 40.616-187.104 55.368-312.856 55.368M429.312 456.736a5.906 5.906 0 0 1-5.616-4.088 5.914 5.914 0 0 1 3.8-7.432c48.592-15.688 102.864-16.552 151.992-2.464a5.91 5.91 0 0 1 4.048 7.296 5.896 5.896 0 0 1-7.296 4.048c-46.904-13.448-98.744-12.632-145.112 2.344-0.608 0.2-1.216 0.296-1.816 0.296" fill="#474341" p-id="56575"></path><path d="M532.576 702.968c-38.248 0-78.176-0.512-115.832-1.52-138.976-3.752-141.248-10.32-142.912-15.12l-1.432-4.096c-3.96-11.256-5-14.824-5-30.064 0-85.056 54.544-163.192 138.968-199.072a5.92 5.92 0 0 1 7.744 3.12 5.9 5.9 0 0 1-3.128 7.736c-80.056 34.024-131.784 107.896-131.784 188.216 0 13.848 0.744 15.968 4.328 26.144l0.824 2.384c33.992 13.584 420.8 14.04 446.248 0.424 5.56-13.656 5.552-13.832 5.36-21.352-0.056-2-0.12-4.424-0.12-7.592 0-83.352-54.488-158.352-138.816-191.064a5.92 5.92 0 0 1-3.376-7.64 5.92 5.92 0 0 1 7.632-3.376c88.912 34.496 146.36 113.808 146.36 202.072 0 3.032 0.056 5.368 0.12 7.28 0.248 9.696-0.056 10.968-6.656 27.176-1.984 4.864-4.976 12.208-116.88 15.232-27.68 0.744-59.056 1.112-91.648 1.112m-247.6-20.528l0.008 0.032c-0.008-0.008-0.008-0.024-0.008-0.032" fill="#474341" p-id="56576"></path><path d="M322.48 632.472a4.128 4.128 0 0 1-4.096-4.704 172.45 172.45 0 0 1 6.072-27.224c0.68-2.176 3-3.408 5.16-2.728a4.134 4.134 0 0 1 2.728 5.16 165.482 165.482 0 0 0-5.784 25.92 4.136 4.136 0 0 1-4.08 3.576M334.696 588.824c-0.544 0-1.104-0.104-1.632-0.344a4.108 4.108 0 0 1-2.152-5.416c10.392-24.112 25.992-46.128 45.112-63.672a4.1 4.1 0 0 1 5.824 0.248 4.124 4.124 0 0 1-0.248 5.832c-18.256 16.76-33.168 37.808-43.104 60.856a4.156 4.156 0 0 1-3.8 2.496M398.856 510.624a4.142 4.142 0 0 1-3.4-1.784 4.14 4.14 0 0 1 1.048-5.752c33.968-23.44 76.176-36.36 118.848-36.36 2.288 0 4.128 1.848 4.128 4.136s-1.84 4.128-4.128 4.128c-41.016 0-81.552 12.4-114.152 34.904a4.134 4.134 0 0 1-2.344 0.728M459.824 442.76a4.132 4.132 0 0 1-4.128-4.016 29.092 29.092 0 0 1-0.088-1.84c0-20.08 12.056-38.536 30.72-47a53.668 53.668 0 0 1 22.344-4.808c29.256 0 53.064 23.24 53.064 51.808 0 0.432-0.024 0.848-0.056 1.28-0.168 2.232-2.2 4.248-4.352 4.2-2.24-0.112-4.008-1.616-3.944-3.864 0-0.064 0.056-0.872 0.056-0.936 0.032-24.696-20.064-44.232-44.768-44.232-6.616 0-12.976 1.368-18.928 4.072-15.72 7.136-25.872 22.624-25.872 39.48 0 0.056 0.088 1.552 0.088 1.616a4.122 4.122 0 0 1-4.008 4.24h-0.128z" fill="#474341" p-id="56577"></path><path d="M475.888 442.76c-2.176 0-4-1.696-4.12-3.904-0.128-0.896-0.192-1.416-0.192-1.96 0-19.992 16.64-36.248 37.104-36.248 20.448 0 37.096 16.256 37.096 36.248 0 0.544-0.064 1.064-0.144 1.584-0.328 2.184-2.248 4.184-4.552 3.872-2.184-0.216-3.864-1.744-3.744-3.952 0.008-0.128 0.104-1.024 0.128-1.16 0.048-15.784-12.88-28.336-28.784-28.336s-28.84 12.56-28.84 27.992c0.016 0.128 0.168 1.376 0.176 1.504a4.126 4.126 0 0 1-3.896 4.344c-0.072 0.016-0.16 0.016-0.232 0.016M440.152 466.28c-0.544 0-1.088-0.104-1.624-0.336-10.456-4.424-17.88-14.584-18.896-25.864-0.944-10.536 3.592-21.416 12.128-29.112 1.328-1.2 2.76-2.336 4.184-3.464 3.112-2.464 6.056-4.792 7.504-7.672 0.968-1.92 1.416-4.336 1.44-7.832 0.048-9.936-3.056-20.04-8.76-28.424a4.164 4.164 0 0 1 1.096-5.784c1.888-1.272 4.488-0.816 5.784 1.096 6.64 9.768 10.256 21.544 10.2 33.168-0.024 3.264-0.312 7.52-2.328 11.512-2.272 4.536-6.088 7.552-9.768 10.464-1.28 1.016-2.576 2.032-3.768 3.112-6.6 5.96-10.12 14.248-9.416 22.184 0.736 8.136 6.304 15.76 13.856 18.96a4.15 4.15 0 0 1 2.2 5.456 4.18 4.18 0 0 1-3.832 2.536M518.344 375.256c-0.568 0-1.16-0.12-1.712-0.368-10.416-4.68-17.8-15.368-18.8-27.224-0.928-11.024 3.568-22.448 12.032-30.56 1.328-1.264 2.752-2.464 4.168-3.656 3.128-2.624 6.088-5.104 7.576-8.224 0.992-2.096 1.448-4.712 1.464-8.488 0.056-10.632-3.072-21.432-8.816-30.408a4.164 4.164 0 1 1 7.008-4.488c6.6 10.312 10.192 22.728 10.128 34.936-0.016 3.4-0.288 7.832-2.272 12.008-2.272 4.768-6.072 7.96-9.744 11.04-1.28 1.072-2.568 2.144-3.768 3.288-6.664 6.384-10.208 15.304-9.496 23.84 0.744 8.752 6.336 16.92 13.928 20.328a4.162 4.162 0 0 1 2.088 5.504 4.12 4.12 0 0 1-3.784 2.472M595.984 478.936c-0.544 0-1.088-0.104-1.624-0.336-10.472-4.424-17.888-14.584-18.896-25.864-0.944-10.52 3.592-21.4 12.12-29.112a89.504 89.504 0 0 1 4.176-3.456c3.12-2.464 6.064-4.784 7.52-7.672 0.968-1.928 1.408-4.344 1.424-7.832 0.056-9.936-3.048-20.04-8.752-28.432a4.164 4.164 0 0 1 1.104-5.784 4.186 4.186 0 0 1 5.784 1.104c6.632 9.792 10.256 21.568 10.184 33.168-0.016 3.248-0.288 7.504-2.32 11.52-2.288 4.536-6.104 7.552-9.792 10.472-1.28 1.016-2.56 2.024-3.752 3.096-6.592 5.968-10.112 14.256-9.408 22.184 0.728 8.136 6.296 15.76 13.856 18.96a4.15 4.15 0 0 1 2.2 5.456 4.152 4.152 0 0 1-3.824 2.528" fill="#474341" p-id="56578"></path></svg>