<?xml version="1.0" standalone="no"?><!DOCTYPE svg PUBLIC "-//W3C//DTD SVG 1.1//EN" "http://www.w3.org/Graphics/SVG/1.1/DTD/svg11.dtd"><svg t="1586841498236" class="icon" viewBox="0 0 1024 1024" version="1.1" xmlns="http://www.w3.org/2000/svg" p-id="67218" xmlns:xlink="http://www.w3.org/1999/xlink" width="200" height="200"><defs><style type="text/css"></style></defs><path d="M512 512m-512 0a512 512 0 1 0 1024 0 512 512 0 1 0-1024 0Z" fill="#F69B47" p-id="67219"></path><path d="M634.368 521.408a127.104 127.104 0 1 0 0-254.272 127.104 127.104 0 0 0 0 254.272z m-43.904-131.776a14.848 14.848 0 1 1 0-29.76h11.52l-14.72-14.72a14.848 14.848 0 0 1 20.992-20.928l26.112 26.112 26.176-26.112a14.848 14.848 0 0 1 20.992 20.992l-14.592 14.72h11.456a14.848 14.848 0 1 1 0 29.76h-29.12v14.912h29.12a14.848 14.848 0 1 1 0 29.76h-29.12v19.392a14.848 14.848 0 0 1-14.912 14.912 14.976 14.976 0 0 1-14.784-15.04v-19.392h-29.12a14.848 14.848 0 1 1 0-29.76h29.12v-14.912h-29.12v0.064z m134.144 193.664c-49.088 12.608-112.448 58.56-157.44 47.616l-14.976-5.44c-22.4-8.256-72.32-25.6-84.224-35.52-5.952-4.928 3.2-8.192 11.328-8.192 8.064 0 78.4 21.12 78.4 21.12 41.792 9.6 45.696-24.96 32.64-36.48-17.472-15.616-149.12-91.776-192.64-100.096-43.456-8.384-88.192 25.92-120.768 46.784-26.24 16.832-46.72 35.2-48.704 36.736-2.24 1.792-2.24 4.288-1.216 7.552l32.448 136a5.12 5.12 0 0 0 5.568 3.904c17.152-2.112 80.064-8.96 120.96-1.088 47.616 9.216 152.064 54.272 205.632 32.576 53.504-21.76 140.096-60.16 166.4-83.648 27.328-24.448 13.504-73.984-33.408-61.824z" fill="#FFFFFF" p-id="67220"></path></svg>