<?xml version="1.0" standalone="no"?><!DOCTYPE svg PUBLIC "-//W3C//DTD SVG 1.1//EN" "http://www.w3.org/Graphics/SVG/1.1/DTD/svg11.dtd"><svg t="1586841390156" class="icon" viewBox="0 0 1024 1024" version="1.1" xmlns="http://www.w3.org/2000/svg" p-id="66404" xmlns:xlink="http://www.w3.org/1999/xlink" width="200" height="200"><defs><style type="text/css"></style></defs><path d="M512 512m-448 0a448 448 0 1 0 896 0 448 448 0 1 0-896 0Z" fill="#72AEFD" p-id="66405"></path><path d="M650.5 251.7l-74.7 74.7-93.6-93.6 74.7-74.7" fill="#FFFFFF" p-id="66406"></path><path d="M556.9 158.1c0.6-0.6 1.5-0.6 2.1 0l91.5 91.5c0.6 0.6 0.6 1.5 0 2.1M458.4 256.6l93.7 93.6-189.6 189.6-93.6-93.7zM245.1 469.9l93.7 93.6-108.5 14.8z" fill="#FFFFFF" p-id="66407"></path><path d="M813 702.3c0 20.9-16.9 37.8-37.8 37.8H259.7c-20.9 0-37.8-16.9-37.8-37.8s16.9-37.8 37.8-37.8h515.5c20.9 0 37.8 16.9 37.8 37.8zM813 551.1c0 20.9-16.9 37.8-37.8 37.8H567.1c-20.9 0-37.8-16.9-37.8-37.8s16.9-37.8 37.8-37.8h208.1c20.9 0 37.8 16.9 37.8 37.8z" fill="#E9F5FF" p-id="66408"></path></svg>